<?xml version="1.0" encoding="utf-8"?>
<!-- Generator: Adobe Illustrator 22.1.0, SVG Export Plug-In . SVG Version: 6.00 Build 0)  -->
<svg version="1.1" id="Слой_1" xmlns="http://www.w3.org/2000/svg" xmlns:xlink="http://www.w3.org/1999/xlink" x="0px" y="0px"
	 viewBox="0 0 329.6 329.6" style="enable-background:new 0 0 329.6 329.6;" xml:space="preserve">
<style type="text/css">
	.st0{fill:#ffffffcc;}
</style>
<g>
	<path class="st0" d="M328.7,126.2c-2.2-6.7-8.1-11.4-15.1-12l-95.1-8.6l-37.6-88c-2.8-6.5-9.1-10.6-16.1-10.6
		c-7,0-13.3,4.2-16.1,10.6l-37.6,88l-95.1,8.6c-7,0.6-12.9,5.4-15.1,12c-2.2,6.7-0.2,14,5.1,18.6l71.9,63.1l-21.2,93.4
		c-1.6,6.9,1.1,14,6.8,18.1c3.1,2.2,6.7,3.3,10.3,3.3c3.1,0,6.2-0.8,9-2.5l82-49.1l82,49.1c6,3.6,13.6,3.3,19.3-0.9
		c5.7-4.1,8.4-11.2,6.8-18.1l-21.2-93.4l71.9-63.1C328.9,140.2,330.9,132.9,328.7,126.2z"/>
</g>
</svg>
