<?xml version="1.0" encoding="utf-8"?>
<!-- Generator: Adobe Illustrator 22.1.0, SVG Export Plug-In . SVG Version: 6.00 Build 0)  -->
<svg version="1.1" id="Слой_1" xmlns="http://www.w3.org/2000/svg" xmlns:xlink="http://www.w3.org/1999/xlink" x="0px" y="0px"
	 viewBox="0 0 329.6 329.6" style="enable-background:new 0 0 329.6 329.6;" xml:space="preserve">
<style type="text/css">
	.st0{fill:#ffffffcc;}
</style>
<path class="st0" d="M167.1,25.4L167.1,25.4L167.1,25.4 M164.8,30.7l35.3,82.7c2.9,6.8,9.3,11.4,16.6,12.1l89.4,8.1l-67.6,59.3
	c-5.5,4.8-7.9,12.3-6.3,19.5l19.9,87.8L175,254c-3.2-1.9-6.7-2.8-10.3-2.8c-3.6,0-7.1,0.9-10.3,2.8l-77.1,46.1l19.9-87.8
	c1.6-7.2-0.8-14.6-6.3-19.5l-67.6-59.3l89.4-8.1c7.3-0.7,13.7-5.3,16.6-12.1L164.8,30.7 M164.8,6.9c-7,0-13.3,4.2-16.1,10.6
	l-37.6,88l-95.1,8.6c-7,0.6-12.9,5.4-15.1,12c-2.2,6.7-0.2,14,5.1,18.6l71.9,63.1l-21.2,93.4c-1.6,6.9,1.1,14,6.8,18.1
	c3.1,2.2,6.7,3.3,10.3,3.3c3.1,0,6.2-0.8,9-2.5l82-49.1l82,49.1c2.8,1.7,5.9,2.5,9,2.5c3.6,0,7.2-1.1,10.3-3.3
	c5.7-4.1,8.4-11.2,6.8-18.1l-21.2-93.4l71.9-63.1c5.3-4.6,7.3-11.9,5.1-18.6c-2.2-6.7-8.1-11.4-15.1-12l-95.1-8.6l-37.6-88
	C178.1,11,171.8,6.9,164.8,6.9L164.8,6.9z"/>
</svg>
