<?xml version="1.0" encoding="utf-8"?>
<!-- Generator: Adobe Illustrator 22.1.0, SVG Export Plug-In . SVG Version: 6.00 Build 0)  -->
<svg version="1.1" id="Слой_1" xmlns="http://www.w3.org/2000/svg" xmlns:xlink="http://www.w3.org/1999/xlink" x="0px" y="0px"
	 viewBox="0 0 575 629.7" style="enable-background:new 0 0 575 629.7;" xml:space="preserve">
<style type="text/css">
	.st0{opacity:0.4;}
	.st1{fill:#FFFFFF;}
</style>
<g class="st0">
	<path class="st1" d="M508.4,127.7H66.6c-13.4,0-23.9,11.5-22.8,24.8l38.5,445.3c1.6,18,16.6,31.8,34.7,31.8H458
		c18.1,0,33.1-13.8,34.7-31.8l38.5-445.3C532.3,139.2,521.8,127.7,508.4,127.7z M185.7,573.4c-12.6,0.6-23.3-9.2-23.9-21.8
		l-16-343.2c0-0.3,0-0.7,0-1c0-12.2,9.5-22.3,21.8-22.9c12.6-0.6,23.3,9.2,23.9,21.8l16,343.2c0,0.4,0,0.7,0,1.1
		C207.5,562.7,198,572.8,185.7,573.4z M310.4,550.5c0,12.6-10.3,22.9-22.9,22.9c-6.3,0-12-2.6-16.2-6.7c-4.1-4.1-6.7-9.9-6.7-16.2
		V206.9c0-12.6,10.3-22.9,22.9-22.9c6.3,0,12,2.6,16.2,6.7c4.1,4.1,6.7,9.9,6.7,16.2V550.5z M429.2,208.3l-16,343.2
		c-0.6,12.6-11.3,22.4-23.9,21.8c-12.3-0.6-21.8-10.7-21.8-22.9c0-0.3,0-0.7,0-1l16-343.2c0.6-12.6,11.3-22.4,23.9-21.8
		c12.3,0.6,21.8,10.7,21.8,22.8C429.2,207.6,429.2,208,429.2,208.3z"/>
	<path class="st1" d="M575,81.6c0,7.8-3.1,14.8-8.2,19.9s-12.1,8.2-19.9,8.2H28.2C12.6,109.8,0,97.2,0,81.6c0-7.8,3.1-14.8,8.2-19.9
		s12.1-8.2,19.9-8.2h154.1V23.8c0-13.1,10.6-23.8,23.8-23.8h162.8c13.1,0,23.8,10.6,23.8,23.8v29.7h154.2
		C562.4,53.5,575,66.1,575,81.6z"/>
</g>
</svg>
